<?xml version="1.0" encoding="UTF-8"?>
<svg id="Layer_1" xmlns="http://www.w3.org/2000/svg" version="1.1" viewBox="0 0 356.5 360">
  <!-- Generator: Adobe Illustrator 29.2.1, SVG Export Plug-In . SVG Version: 2.1.0 Build 116)  -->
  <defs>
    <style>
      .st0 {
        fill: #1d1d1b;
      }

      .st1 {
        fill: #2a6e78;
      }

      .st2 {
        fill: #fbbc43;
      }

      .st3 {
        fill: #8f9f63;
      }
    </style>
  </defs>
  <path class="st0" d="M351.8,324.7c-1.9-2.6-3.6-6.3-1.7-8.9,5.5-7.5,4.9-15.9,4.9-24.4-.1-22.1,0-44.1,0-66.1,0-6.3-1-12.3-6-16.9-1.7-1.5-1.3-3.1-.6-5,2.2-5.3,2.7-10.9,2.7-16.6,0-14-.6-28,.8-42.1.2-1.6,0-3.5-.8-4.8-1.1-2-.8-3.8-.6-5.8,1.6-13.9,1.8-27.9-.2-41.8-.3-2.1-.3-3.7.8-5.6,2.3-3.8,3.3-8,1.4-12.4-.9-2.2-1-4.2.3-6.6,1.3-2.4,2.1-5.4.8-8.2-2.8-6-1.9-12.3-2.1-18.6-.1-3.7.4-6.9,2.5-10.3,4.7-7.6.5-17.9-8.2-20.2-16.1-4.3-32.4-5.4-48.9-3.3-2.6.3-4.7,1.8-5.8,4.3-.7,1.5-1.1,3.1-1.7,4.8-3.5,1-7,0-10.5,0-13.2-.4-26.2,1.3-39.3,2.3-3.1.2-4.5-.5-5.6-3.3-1.3-3.5-4.1-5.5-7.5-6.9-4.7-2-9.1-1-13.5.9-2.2,1-3.9,1.3-5.8-.8-6.8-7.2-14.6-6.8-21.7-.9-2.1,1.8-3.9,1.9-6.3.7-9.4-4.4-17.8-2.1-22.3,8.9-13.5,1.7-27.5,2.2-39.5,10.1-1.2-1.5-.7-2.4-.4-3.3,1-3.9,1.2-7.8.4-11.8-1.9-9.5-13.6-15.3-21.5-10.1-3.4,2.2-6,2.2-9.2.7-3.2-1.5-6.2-1.7-9.5,0-3.2,1.7-8.6,1.7-12.4.7-.6-.2-1.3-.2-2-.3-9.2-1.4-18.1.3-26.8,3.2-5.2,1.7-9.8,3.9-15.5.7-4.7-2.6-9.5-.3-12.9,3.6-3.5,4-4.7,8.9-2,13.8,1.7,3.1,1.3,5.5,0,8.4-3.3,7-5.2,14.5-4.5,22.2.8,8.6,2.9,17,7.7,24.5,2.8,4.4,2.7,4.5-.9,8.3-6.4,6.8-7.3,14.5-2.2,22.3,1.9,2.9,1.8,5,0,7.7-2.3,3.6-2.9,7.5-1.4,11.5.9,2.5.6,4.5-.8,6.6-2.1,3.3-2.9,7-1.6,10.5,1.4,3.7.6,6.8-1.1,10-1.6,2.9-1.1,5.6,0,8.6,1.5,4.1,5.2,6.4,7.3,9.5-.2,1.5-1.1,2.1-1.8,2.8-6.2,6.4-6.8,10.2-2.5,18.2.9,1.7.7,3,.2,4.7-1.2,4.2-2.6,8.6-.5,12.7,2.2,4.4,1.5,8.4.3,12.8-2.8,10-.2,19.5,3.6,28.6,1.5,3.4,1.4,6.1-.8,9.2-4.7,6.9-5.8,14.6-4.2,22.9,1.1,5.3,3.6,10,5.8,15.2-2.6,2.9-5.1,6.2-5.3,10.4-.1,4.2,1.8,8,3.5,11.6-5.7,8.8-4.3,15.2,4,21.6,9.2,7.1,20,8.7,31,9.3,14.2.8,28.2-1.7,42.1-4.3,19.1-3.5,38.3-4.1,57.6-3.6,4.3.1,8.6,1.2,12.8,2.1,2.1.5,4,1.6,5.1,3.7,3.2,5.7,8.3,7.8,14.6,7.6,4.3-.1,8.7-.5,13-.4,5.5.1,9.7-2.3,12.5-6.7,1.7-2.6,3.8-3.9,6.7-4.6,13.4-3,26.9-2.4,40.3-1.5,16.9,1.2,33.5,4.8,50.2,7.2,10.4,1.5,20.8,2.3,31.3.3,8-1.5,15.9-3.4,22-9.6,9.3-9.6,7.4-12.5,1.9-20.1Z"/>
  <g>
    <path class="st1" d="M277.2,314.4c1.6,2.3,3.7,3.9,6.8,2.6,2.9-1.2,4.5-3.7,3.6-6.8-1.6-5-4.8-8.8-8.5-12.5-3.6,4.2-4.4,13-1.8,16.7Z"/>
    <path class="st1" d="M286.5,282.7c.1-3.1-3.2-4.8-6.3-3.6-7,2.7-13.4,2.9-19-3-.8,1.2-.3,1.9,0,2.7,3,6.8,8.9,9.1,15.6,9.7,2.8.2,4.4,1.3,5.7,3.8,4,8,10.9,10.9,20.6,8.7-.9-.7-1.2-1.1-1.7-1.2-8.4-2.7-15.4-6.3-15-17Z"/>
    <path class="st1" d="M261.4,306.5c2.2,1.9,5.9,1.7,8-.9,2.4-3.1,4.7-6.4,5.3-11.5-5.3-.7-9.5,1-13.2,3.8-2.5,1.9-2.2,6.7,0,8.6Z"/>
    <path class="st1" d="M316.3,317.7c-1.6,1.1-3.5,1.8-5.5,2.2-3.1.6-6.2.9-9.3,1.5,7.4,2.4,15.8.8,21.1-3.3,2.9-2.2,3.9-5,3.1-8.3-.7-3.3-3-5.6-6.2-6.7-3.3-1.1-6.7.3-8,3.3-1.3,3-.3,5,3.6,6.9.3.1.7.2.9.3,2.2,1.2,2.3,2.7.2,4.1Z"/>
    <path class="st1" d="M298.4,307.9c-2.3.4-3.6,1.8-3.4,4.2.3,2.3,1.8,3.6,4.1,3.4,2.2-.2,3.5-1.7,3.8-3.3-.2-2.7-2.4-4.6-4.5-4.3Z"/>
    <path class="st1" d="M240.1,62.5c0,3.6,2.2,6.6,5.5,8.4,3.5,1.9,7.2,1.4,9.7-1.3,4.2-4.6,7.6-9.9,11.9-15-7.3-1.5-14.3-2.5-21.2-.5-3.7,1.1-6,4.5-5.9,8.5Z"/>
    <path class="st1" d="M341.7,146.6c-6.2,11-12.1,21.9-16.6,33.6-1.7,4.3-2.7,8.9-2.4,13.7.4,5.9,3.6,9.2,9.4,9.5,5.7.2,8.7-2.4,9.5-8.5.2-1.8.2-3.7.2-5.5,0-11.2.1-22.3,0-33.5,0-3.1,1.5-6.1,0-9.2Z"/>
    <path class="st1" d="M339.7,57c-3.2,0-4.9,1.7-5,4.9,0,3.2,2.2,5.7,5,5.6,2.9-.1,5.2-2.6,5.1-5.6,0-3.1-1.9-4.8-5.1-4.8Z"/>
    <path class="st1" d="M277.6,326.6c8.5,1.6,16.9,3.6,25.3,5.4,7.4,1.6,14.8,1.9,22.3,1.4,5.1-.3,9.8-2.1,13.8-5.3,2.9-2.3,3.3-5,1.5-7.3-1.9-2.5-4.6-3-7.5-.8-9,6.9-19.4,7.2-30,6.3-8.1-.7-16.1-2.4-24.2-3.2-9.2-.9-18.5-1-27.5,1.5,8.9-.6,17.6.3,26.3,2Z"/>
    <path class="st1" d="M329,66.4c.4-.5.7-1.1,1-1.7,1.1-2.5,0-6-2.3-7.5-2.5-1.7-5-1.6-7.3.5-1.4,1.3-2.5,2.7-3.2,4.4-2.8,6.3-3.9,13-5.1,19.7-.1.7.1,1.3,1.8,2.3,4.1-6.8,10.7-11.2,15.1-17.7Z"/>
    <path class="st1" d="M321,91.3c5.8-2.9,11.9-5.2,18.3-6.4,4-.7,5.9-4.1,4.8-7.3-1.3-3.8-4.6-5.3-8.4-4-.8.3-1.5.7-2.2,1.2-6.3,4-12.3,8.6-17.5,14.1-2.6,2.7-5.5,5.2-7.1,10,4.4-3.2,8.1-5.5,12.1-7.5Z"/>
    <path class="st1" d="M302.3,220.9c0,4.8,5.6,10.3,10.6,10.2,4.3,0,8.9-4.9,8.8-9.3,0-4.9-5.6-10.3-10.5-10.1-4.4.1-8.8,4.7-8.9,9.2Z"/>
    <path class="st1" d="M205.2,303.7c-1.3,6.7,4.1,13.2,10.5,12.8,8.5-.5,16.2-12.5,13.3-20.5-.8-2.1-2.1-3.4-4.2-3.9-1.4-.3-2.5.6-3.3,1.8-1.2,2-.8,3.7.4,5.5,2.4,3.6,2.3,6.5,0,9.1-2,2.2-5.4,2.9-7.7,1.7-2.5-1.4-3.5-4.8-2.3-9,1.2-4,3.1-7.7,5.7-11,3.4-4.5,6.6-9.2,9-14.4.8-1.9,1.6-3.7-.8-4.8-1.2.3-1.7.9-2.2,1.6-5.1,6.7-11.7,8.1-19.6,6.1-4.6-1.2-7.7-4.4-11.3-7.1-1.7-1.3-3.6-2.7-5.8-.7-2.2,2-2.3,4.2-1,6.7.8,1.5,2,2.6,3.4,3.6,6.3,4,13.3,5.1,20.6,4.2,1.4-.2,2.9-1.2,4.3.1.4,2.5-1.4,3.9-2.8,5.4-3.2,3.7-5.5,7.9-6.4,12.8Z"/>
    <path class="st1" d="M155.7,221.1c4.5-1.2,9-2.3,13.5-3.2,2.9-.6,4.2-4.2,3.2-6.9-1.1-2.9-4.8-4.6-7.4-2.9-4.6,3-9.1,6.1-11.9,11.1.6,1.6,1.5,2.2,2.6,1.9Z"/>
    <path class="st1" d="M229.3,223c2.3-.5,3.9-2,4.2-4.4.4-3.2-1.5-5.1-4.2-6-5.1-1.8-10.5-2.8-16.2-2.2,4.4,2.2,7.9,5.1,10.2,9.3,1.3,2.4,3.2,4,6,3.4Z"/>
    <path class="st1" d="M150.4,314.3c1.7-1.8,1.9-3.9.5-5.9-1.4-2-3.2-2.7-5.6-1.6-6.6,2.9-11.7,1.4-15.9-4.4-.7-1-.9-2.6-3-2.8.3,8.6,9.9,16.7,17.1,17,2.6.1,5-.4,6.8-2.3Z"/>
    <path class="st1" d="M187.8,297.6c-1.8,3-1.6,5.8.6,7.6,2.4,2,5.7,1.9,8-.6,3.1-3.4,6-7,7.7-11.8-6.5-2.5-13.2-.4-16.4,4.8Z"/>
    <path class="st1" d="M221,326.9c8.4-3.8,17.4-5.3,26.5-6.6,3.4-.5,6.9-.5,10.7-2.3-21.2-2.3-36,.3-42,7.5,1.3,2.5,3.1,2.2,4.8,1.4Z"/>
    <path class="st1" d="M132.1,318c-11.9-3-23.9-4.2-36-1.9-5.7,1.1-11.7,2.2-16.2,6.6,2,.2,3.8-.8,5.6-1.3,6.8-1.9,13.5-3.1,20.6-2,8.1,1.3,16,2.8,23.4,6.4,3.5,1.7,6.8.7,7.6-2,.6-2-1.4-4.5-4.6-5.6-.2,0-.3,0-.5-.1Z"/>
    <path class="st1" d="M152.5,326.3c7.9-1.8,14.3,1,19.8,6.6,1.3,1.3,2.4,2.8,4,3.7,2,1.1,3.9,1.1,5.1-1.1,3.9-7,10.1-9.2,17.6-9,1.5,0,3.4.7,4.4-1.6-.9-1.7-2.7-1.8-4.2-1.9-6.4-.2-12.8.6-18,4.6-2.9,2.3-4.7,1.9-7.3,0-6.4-4.6-13.7-5.8-21.4-4.9-1.7.2-3.7.2-4.5,2.4,2.5,1.4,2.5,1.5,4.4,1.1Z"/>
    <path class="st1" d="M198.9,29.8c7.2-2.4,14.4-4.5,22.2-4.2,3,.1,5.4-3.3,4.9-5.7-.6-2.7-3.5-4.2-6.7-3.2-5.3,1.5-10.4,3.5-15,6.6-2.4,1.6-5,3.3-5.5,6.6Z"/>
    <path class="st1" d="M15.8,222.8c-5.5,5.7-4.6,19.4,2.1,30.3-1.9-8.7-1.3-17.2.4-25.8.5-2.4-.3-3.8-2.5-4.5Z"/>
    <path class="st1" d="M16.3,149c2.9,0,5.5-2.9,5.4-6-.1-2.8-2.7-5.5-5.4-5.5-2.9,0-5.5,2.7-5.5,5.8,0,3.2,2.5,5.8,5.5,5.7Z"/>
    <path class="st1" d="M39.3,197.3c-5.2-1.1-10.4-1.2-15.5-.7-4.2.4-8.1,1.9-10.6,5.8-2.8,4.4-1.5,10.6,3.1,13.7,3.4,2.3,8.4,1.5,11.2-1.9,3.2-3.9,2-8.3-2.7-9.8-1.1-.4-2.4-.2-3-2.3,4.5-6,12.5-.4,17.5-4.8Z"/>
    <path class="st1" d="M11.8,164.9c3.8,2.7,5.5,6.5,7.1,10.6,1.4,3.6,3.4,6.9,6,9.7,6,6.5,13.6,9.4,22.1,10,9.6.6,19.3.5,28.9,1.2,10.8.8,20.9,3.9,29.2,11.3,1.1,1,2,2.2,3.5,2.6,0-2-1.5-3.2-2.7-4.4-8.8-9.4-20.1-12.6-32.4-13.4-7.5-.5-15,0-22.4-1-14.9-2.1-26.2-7.3-26.9-23.9-.2-4-.9-8.3-4.7-11.2-3.1-2.4-6-2.4-8.4.3-2.5,2.9-2.6,5.9.7,8.2Z"/>
    <path class="st1" d="M25.8,192.6c-3.1-3-5.7-5.7-8.6-8.1-1.8-1.5-4-1.6-5.8.3-1.6,1.7-1.5,3.5-.1,5.4,2.2,2.9,10.3,4.6,14.5,2.4Z"/>
    <path class="st1" d="M101.2,274c4.5,0,8.1-6.1,7.2-9.9-1.1-4.6-5.8-7.3-10.9-6.3-2.3.5-4.4,1.5-6.4,2.7-7.5,4.9-13.5,11.1-19.2,18.8,1.2.2,1.7.4,2.1.3,8.8-3.2,17.6-5.6,27.1-5.7Z"/>
    <path class="st1" d="M196,23.6c2.6,0,5.6-3.3,5.7-6,0-2.9-2.3-5.4-5.2-5.5-3.1-.2-5.7,2.3-5.7,5.5,0,3.3,2.5,6.1,5.2,6Z"/>
    <path class="st1" d="M335,340c-6.8,2.3-13.7,2.8-20.7,2.6-13.7-.5-27.1-3-40.5-5.2-20.7-3.4-41.5-6-62.5-3.5-9.4,1.1-18.9,2-25.4,10.6-1.7,2.3-11.5,2.2-13.1-.1-4.8-6.8-12.2-8.4-19.6-9.7-13.9-2.3-27.8-2.2-41.8-1.1-17.5,1.3-34.6,4.8-51.9,7-9.4,1.2-18.9,2.1-28.3.3-6.3-1.2-12.4-3-16.1-8.9-.5-.7-1.2-1.2-2.1-.8-.8,2.9-.9,3.1.9,5.1,2.9,3.1,6.4,5.2,10.5,6.6,13.4,4.4,27,3.4,40.5,1.5,19.9-2.8,39.7-6.8,59.9-6.8,11.2,0,22.3,0,33.1,3.4,3.6,1.2,6.9,2.8,8.6,6.3,1.3,2.7,3.3,3.5,6,3.4,5.2-.2,10.3-.2,15.5-.2,2,0,3.7-.7,4.4-2.6,1.6-4.2,5.2-5.8,9.1-7,14.3-4.3,29.1-3.5,43.6-2.7,19.8,1.2,39.1,6,58.8,8.1,9.7,1,19.3.9,28.7-1.6,4.7-1.2,9.1-3.3,12.4-7,1.5-1.6,2.2-3.3.5-6.1-3.3,3.6-6.1,7-10.6,8.5Z"/>
    <path class="st1" d="M74.6,317.1c-3.6.8-6.8,2.5-10.1,4.1-8,3.9-16.2,7.1-25.4,4.5-7.5-2.1-13.2-6.8-18-12.7-.8-1-1.5-2.2-2.7-2.9-2.8-1.9-5.3-.8-5.6,2.6-.2,1.5.3,2.9.9,4.3,4.1,9.4,11.8,13.6,21.5,14.7,16.3,1.9,29.1-6.8,43-13.7-1.4-1.4-2.5-1.1-3.6-.8Z"/>
    <path class="st1" d="M342.4,18c-11.8-2.9-23.8-4.5-35.9-3.6-1.9.1-4.4-.1-6,2.2,2.4,2,5.2,1.9,7.9,2.4,10.5,1.8,20.6,4.8,29.6,10.8,3.2,2.1,7.1.9,8.7-2.6,2.1-4.7.9-7.9-4.3-9.1Z"/>
    <path class="st1" d="M80,21.7c4.1,4.3,6.5,9,2.7,15.7,4.3-1.8,4.5-2.1,6.5-5.1,4.1-6.4,1.5-16.1-2.1-19.6-2.4-2.3-5.7-2.5-8.1-.5-2.4,2.1-2.6,4.5-.6,7.6.5.7,1.1,1.3,1.6,1.9Z"/>
    <path class="st1" d="M107.8,22.7c2-3.5,2.1-7.3-.3-10.9-1.7-2.5-3.9-3.5-6.9-2.2-2.9,1.3-4.1,3.7-2.9,6.9,2.1,5.6,1.2,10.4-2.7,14.9-.4.5-.8,1.1,0,2.1,5.5-2.1,9.9-5.7,12.9-10.8Z"/>
    <path class="st1" d="M61,51.6c2.1-1,4.4-1.5,6.8-1.6,3.8-.2,7.6-.9,11.3-2.1,2.9-.9,6.1-1.7,7.6-4.9-7.4,2.4-14.9,2.3-22.5,1.9-2.5-.1-5-.1-7.5.1-4.7.5-8,3.2-10,7.3-1.5,2.9-.4,5.5,1.7,7.8,1.6,1.8,3.7,2.3,5.9,1.5,2.7-1,4.6-2.9,4.1-6-.4-2.4,1.1-3.3,2.8-4.1Z"/>
    <path class="st1" d="M101.1,42.9c0,2.4,3,5.5,5.5,5.5,2.5,0,5.5-3,5.5-5.5,0-2.5-2.6-5-5.2-5.1-2.6,0-5.8,2.7-5.8,5.1Z"/>
    <path class="st1" d="M17.5,22.7c2.2-.4,3.9-1.6,3.8-3.9-.1-1.9-1.7-3.5-3.6-3.4-2.1,0-3.8,1.3-3.6,3.8.1,2.1,1.4,3.3,3.5,3.5Z"/>
    <path class="st1" d="M172.5,24.5c7.2-.6,14,1,20.9,4.5-.6-2.2-1.9-3.5-3-4.3-5.2-3.6-10.6-6.8-16.5-9.2-2.3-.9-4.6-1-6.3,1.2-.9,1.1-1.9,2.5-1,4.1,1.3,2.3,3.3,3.9,6.1,3.7Z"/>
    <path class="st1" d="M16.8,131c3.3,1.9,6.9.4,9-4.1,1.7-3.6,3.7-7,7.7-10.2-7-.9-12.7-.9-17.6,3-4.4,3.5-3.9,8.6.9,11.3Z"/>
    <path class="st1" d="M23.6,111c5.3.6,10.6.7,15.8-1,3.1-1,6.3-1.9,8.6-4.9-1.2-1.2-2.2-1.2-3.2-1.3-7-.8-12.8-3.6-17.7-8.9-4.1-4.5-9.2-4-12.9.3-3.7,4.2-3.2,8.3,1.5,12.5,2.3,2.1,5.1,3.1,8.1,3.4Z"/>
  </g>
  <g>
    <path class="st3" d="M128.5,260.5c-6.4,13.7.2,37.3,18.7,40.8,3.3.6,6.5,1.2,9.9,1.3,4.2.1,8.5.3,12.1,2.3,6.5,3.6,13.1-2,12.8-8.6-.6-11.7,0-23.4-.2-35,0-6.7.8-13.3-.7-20-.4-1.8.6-2.8,2.1-3.5,9.3-4,18.8-6.7,29.1-4.3,6.3,1.5,10.4,6.3,10.6,12.7.2,6.4-3.3,11.3-9.3,13-.2-.6-.4-.7-.4-.8,0-.3,0-.7.2-1,2.8-5.5,1.6-10.4-2.6-14.6-4.3-4.3-10.8-5.4-16.2-3-5.6,2.6-9.2,8.3-8.6,14,.7,7.1,5.9,13.1,12.6,14.5,10.8,2.3,19.9-1.3,26.8-9.4,9.1-10.6,6.9-24.4-5-32.5-9.6-6.6-20.3-9.1-31.8-7.7-9.4,1.1-18.2,4.3-26.4,8.7-14.4,7.6-26.5,17.8-33.7,33ZM149.8,259.8c5-5,10.8-9,16.8-12.6,5.3-3.2,9.1-.9,9.2,5.3.1,6.2,0,12.3,0,18.5,0,0-.2,0-.2,0,0,6.2,0,12.4,0,18.5,0,4.7-1,5.5-5.7,5.3-5.7-.2-11.3-.8-16.9-1.9-11.8-2.3-16.6-12.1-11.1-22.9,2-3.9,4.8-7.2,7.9-10.3Z"/>
    <path class="st3" d="M345.8,222.4c0-6.7-4.1-11.1-9.8-10.9-5.4.2-9.1,4.6-9.2,11,0,3,0,6,0,9,0,2.2-.7,3.5-3.2,3.4-5.3-.2-10.2,1.1-14.8,3.6-2.7,1.5-4.2.9-5-2.3-1.6-5.8-5-10.5-9.4-14.5-7.3-6.6-18.1-8.2-25.5-3.8-4.4,2.5-6.4,6.9-4.9,10.9,1.5,4.1,5.4,5.9,10.7,4.7,2.3-.5,4.6-1.1,6.8.2,3.8,2.2,7.2,4.9,9.2,8.9,2.1,4.3,2.2,8.8-.6,12.8-2.8,4.1-6.7,6.5-11.9,5.9-5-.5-7.9-4.8-6.2-9.6.4-1.1,1.2-2.1.3-3.3-6.8-3.1-13.4,5.7-11.7,11.6,1.5,5.3,5,8.5,10.1,10.2,5.3,1.7,10.6,1.4,15.6-.9,3-1.4,4.4-.7,4.7,2.5,0,.8.4,1.6.7,2.4,4.6,12.5,20.7,16,29.4,6.5,4.8-5.3,3.1-12.5-3.5-15-1.3-.5-2.6-.8-3.3.8,0,.8.4,1.3,1,1.7,1.7,1.2,3.2,2.8,2.2,5-1.1,2.3-3.2,3.2-5.8,3.1-3.7-.2-6.2-2.6-6.7-6.7-1.1-8,4.1-15.5,11.9-17.3,8.2-1.9,16.4,2.7,19.1,10.7.9,2.9,1.2,5.8,1.3,8.9.3,12.3,1.1,24.7.9,37,0,1-.2,2,.7,2.8,5-1,7.2-3.7,7.3-8.9,0-4.5,0-9,0-13.5,0-22.4,0-44.7,0-67.1Z"/>
    <path class="st3" d="M255,225.5c-.2-5.9-4.2-10.1-9.5-10-5.1,0-9.7,4.8-9.3,10.3.9,12.5.3,25,.6,36.2,0,5,0,8.7,0,12.3,0,8.8,0,17.7.1,26.5.2,6,4.4,9.9,9.8,9.7,5.4-.3,9-4.1,9-10-.1-25,.3-50.1-.7-75.1Z"/>
    <path class="st3" d="M71,303.1c2.7-2.7,5.9-4,9.7-4.7,9.8-2,18.1.9,25.6,6.8,3.2,2.5,6.4,3.8,10.1,1.9,3.8-1.9,4.4-5.4,4.4-9.4,0-10.5-.1-21,0-31.6,0-7.3-.4-14.7.9-22,.9-5.1,3.4-8.5,8-10.7,3.9-1.8,7.9-2.4,12.1-2.2,3,.2,5.2-1.4,5.9-4.3.7-3-1.3-4.7-3.6-6-3.2-1.7-6.7-2-10.2-1.4-6,1-11.6,3.1-16.4,7-2.5,2-4.1,1.9-6.1-.7-12.6-16.5-42-27.4-65.6-18.4-13.6,5.2-21.8,16.6-21.1,30.7.7,12.7,9.5,23,23.2,26.6,1.4.4,3.1.1,3.7,2.3-1.1,2.5-3.3,4.3-4.9,6.7-2.6,3.9-5.3,7.7-6.2,12.4-.7,3.9.6,7.1,3.3,8.1,3.2,1.2,5.9.2,8.1-2.3,1.7-2,3.3-4.2,4.9-6.3,8.7-12.2,18.9-22.8,31.2-31.4,5-3.4,10.4-6.1,16.5-6.8,5.8-.7,8.2,1.4,8.2,7,0,6.8,0,13.7,0,20.5,0,5.1,0,10.3,0,15.4-2.1.6-2.8-.2-3.5-.8-2.7-2.4-5.8-3.9-9.3-4.4-12.6-2-23.4,1.4-32,11.1-1.9,2.2-3.7,3.9-6.8,4.6-9.9,2.3-18.6-.5-26.3-6.4-8.4-6.4-14.8-14.3-14.4-25.8,0-2.6-2.2-3.8-4.5-2.5-1.9,1.2-3,3.2-3.7,5.2-2.5,6.4-2,12.7.5,19,8.7,21.8,42,28.9,58.1,12.7ZM93.6,239.9c-6,1.5-11.8,3.6-17.2,6.6-2.5,1.4-4.9,1.7-7.7,1.1-6.3-1.4-12.8-2.1-18.6-5.4-1.7-1-3.4-2-4.9-3.5-4.5-4.7-4.9-10.1-.9-15.3,3.3-4.3,8-6.7,13.1-7.7,16.8-3.3,31.7.9,44.2,12.8,3.4,3.3,4.6,5.7,5.2,9.7-4.4.6-8.9.6-13.2,1.6Z"/>
  </g>
  <g>
    <path class="st2" d="M200.7,43.1c0,32.9,0,65.8,0,98.7,0,1.3,0,2.7.1,4,.6,3.9,3.1,5.4,6.9,3.9,1.2-.5,2.4-1.2,3.5-2,5.7-3.7,11.5-7.4,17.2-11.1,11.9-7.7,23.8-15.4,35.8-22.9,4-2.5,6.6-1.1,6.6,3.5.2,16.2,1.9,12.8-10.5,20.8-15.6,10.2-31.4,20.1-47.1,30.2-7.1,4.5-11.6,10.5-10.5,19.5.2,1.8,0,3.7,0,5.5.2,5.4,3.4,8.4,8.6,7.9,13.2-1.3,26.3-.8,39.4.4,7.3.6,14.8.7,21.6,3.5,4.8,2,9.5,2.7,14.6,2.5,3.2-.1,6.3,0,9.5,0,6.9,0,8.2-1.3,8.2-8.1,0-15.5,0-31.1,0-46.6,0-1.7,0-3.4.1-5,.7-5.2,4.7-9.1,9.3-9.2,1.4,1.9,1.2,4.2,1.2,6.2,0,6.5-.2,13-1.2,19.5-1.5,9.4-2.5,18.9-.5,28.4.5,2.5,1.3,4.8,4.1,5.6,0-.6,0-1.3,0-1.9-2.9-10.6,0-20.1,5.6-29.1,4.3-7,8.7-13.8,13.2-20.7,2.7-4.1,5.1-8.4,5.6-13.2,1.5-12.6,1-25.3.3-38-.4-6-4.3-7.3-9.6-3.9-7.9,5-15.5,10.3-23.4,15.4-1.6,1-2.8,3-5.2,2.3-1-1.4-.5-3-.5-4.5,0-14.4,0-28.7,0-43.1,0-3,.3-6.4-2.7-8.1-2.9-1.6-5.4.6-7.7,2.1-6.4,4.2-12.8,8.4-19.2,12.7-11,7.3-21.9,14.5-32.9,21.7-4.9,3.2-7.7,1.8-8.1-4.2,0-1,0-2,0-3,0-9,0-18,0-27.1,0-7.9.9-8.9,8.8-10.7,27.3-5.9,54.3-3.3,81.1,3.1,4.7,1.1,9.3,2.6,14,3.7,4.2,1,5.9-.4,6-4.8,0-2,0-4,0-6,0-5.7-1.6-7.7-7.2-9.1-14.4-3.4-29.1-5.3-43.9-6.4-27.8-2.1-55.2.7-82.4,6.5-6.3,1.3-8.7,4.6-8.7,11ZM272.5,168c0,2.8.1,5.7,0,8.5-.2,3.5-2,5.4-5,4.7-6.9-1.6-13.7-2-20.7-1.6-.6,0-1.3-.4-1.5-1.2,0-1.5,1.5-1.9,2.6-2.6,6.2-3.8,12.5-7.6,18.8-11.2,4-2.3,5.8-1.1,5.9,3.5Z"/>
    <path class="st2" d="M83.7,85.6c3.7-3.1,6.5-3,9,.2,2.1,2.8,1.4,4.4-3.2,7.1-15.4,9-30.9,17.8-46.2,26.9-7.5,4.4-13.2,10.3-13.6,19.7-.3,7.5-.2,15,0,22.5.2,9.2,5.5,16.1,14.3,18.2,8.9,2.1,18,3.5,27.2,3.3,9.8-.3,19.2,1.7,28.4,4.5,7.9,2.4,15.2,5.9,20.2,13,1.3,1.8,2.9,2.5,5.1,2.5,7.2,0,14.3,0,21.5,0,4.6,0,6.2-1.8,6.3-6.5,0-3.5,0-6.9,0-10.6,1.5-.1,2.1.5,2.4,1.3,1.7,4.5,5.2,7.3,9.1,9.6,6.9,4.1,14.7,5.2,22.5,6,5,.5,5.8-.3,5.8-5.3,0-49.8,0-99.5,0-149.3,0-2.2.2-4.4,0-6.5-.5-5.7-2.7-10-8.6-12.2-6-2.1-12.2-3.1-18.5-3.6-12.4-1-24.6.4-36.4,4.4-5.8,1.9-7.3,4.5-7.3,10.9,0,8.9,0,17.7,0,26.6,0,1.2.6,2.7-1,3.5-.9-.2-1.5-.7-2-1.4-9-11.2-20.9-16.6-35.1-17.3-5.4-.3-8.7,1.6-11.1,6.5-5.1,10.1-13.9,13.2-24.2,8.9-8.3-3.4-12.4-14-8.6-22.1,4.6-9.8,14.5-13.2,24-8.3,2.6,1.3,5.2,2.8,8.3,1-2.7-4.9-2.6-4.9-2.2-11,.1-2,.2-4,0-6-.7-6.6-5.1-10.9-11.5-10.7-8,.2-15.9,1.3-23.4,4.5C10.5,25.8,2,56.4,17.8,77.6c15.6,21.1,45.8,24.8,65.9,8ZM158.9,47c2.3.2,3.8,1.1,3.9,3.6,0,1,0,2,0,3,0,34.8,0,69.7,0,104.5,0,1.3.3,2.7-1,4.4-5.5-1.3-6.9-5.8-8.1-10.3-.3-.9-.2-2-.2-3-.2-31.8-.4-63.7-.5-95.5,0-5.2,1.6-7,5.8-6.7ZM114,116.3c4.7-2.1,7-.8,7.2,4.4.2,6.3,0,12.7,0,19h0c0,6,0,12,0,18,0,4.8-1.4,5.9-6.1,4.6-14.5-3.7-29-7.5-43.4-11.3-.8-.2-1.6-.5-2.4-.8-4.7-1.8-5.1-4.4-1.2-7.6,3.8-3.1,8.2-5.1,12.4-7.5,10.5-6.1,21.1-12,31.7-17.9.6-.3,1.2-.7,1.8-.9Z"/>
  </g>
</svg>